<svg id="Layer_1" data-name="Layer 1" xmlns="http://www.w3.org/2000/svg" viewBox="0 0 23 19"><path d="M.71,2.92V1.45L2.94.15h.59V7.72H2.19V2.06ZM6.58,18.23V17.7l2.68-3.5a2.26,2.26,0,0,0,.58-1.38,1,1,0,0,0-.24-.72.89.89,0,0,0-.69-.27.9.9,0,0,0-.67.26,1.33,1.33,0,0,0-.32.73l-1.24-.23a2,2,0,0,1,.7-1.44A2.27,2.27,0,0,1,9,10.57a2.26,2.26,0,0,1,1.67.61,2.12,2.12,0,0,1,.62,1.59,2.86,2.86,0,0,1-.65,1.79L8.75,17h2.63v1.26Zm7.63-5.74,3-3-3-3,1.26-1.26,3,3,3-3,1.26,1.26-3,3,3,3-1.26,1.26-3-3-3,3Zm-12.83,0,3-3L5.62,8.23l3-3L9.84,6.51l-3,3L5.62,10.79l-3,3Z"/></svg>