<svg id="Layer_1" data-name="Layer 1" xmlns="http://www.w3.org/2000/svg" viewBox="0 0 23 19"><path d="M3.68,15.2v-.73l4.2-5.42A4.66,4.66,0,0,0,8.6,7.91a2.64,2.64,0,0,0,.18-1,1.9,1.9,0,0,0-.4-1.27,1.47,1.47,0,0,0-1.17-.47,1.52,1.52,0,0,0-1.16.47,2.12,2.12,0,0,0-.54,1.27L3.87,6.61a3,3,0,0,1,1-2.16,3.33,3.33,0,0,1,2.32-.86,3.38,3.38,0,0,1,2.43.88,3.09,3.09,0,0,1,.94,2.39,4.18,4.18,0,0,1-.95,2.61L6.32,13.6h4.43v1.6Z"/><path d="M14.21,12.49l3-3-3-3,1.26-1.26,3,3,3-3,1.26,1.26-3,3,3,3-1.26,1.26-3-3-3,3Z"/></svg>