<svg id="Layer_1" data-name="Layer 1" xmlns="http://www.w3.org/2000/svg" viewBox="0 0 23 19"><path d="M3.49,12l1.64-.22A2,2,0,0,0,7.2,13.73a2,2,0,0,0,1.49-.58,2.26,2.26,0,0,0,.56-1.62,2.31,2.31,0,0,0-.56-1.66A2,2,0,0,0,7.2,9.3a2.45,2.45,0,0,0-1,.22l-.69-.91,2.38-3.3H4V3.72h6.41v.6L7.61,8.11a2.12,2.12,0,0,1,.47,0,2.67,2.67,0,0,1,2.16,1,3.77,3.77,0,0,1,.81,2.49A3.67,3.67,0,0,1,10,14.25,3.79,3.79,0,0,1,7.2,15.32a3.78,3.78,0,0,1-2.55-.93A3.34,3.34,0,0,1,3.49,12Z"/><path d="M14.21,12.49l3-3-3-3,1.26-1.26,3,3,3-3,1.26,1.26-3,3,3,3-1.26,1.26-3-3-3,3Z"/></svg>