<svg xmlns="http://www.w3.org/2000/svg" xmlns:xlink="http://www.w3.org/1999/xlink" width="36" height="37" viewBox="0 0 36 37">
    <defs>
        <path id="prefix__a" d="M12.985 6.5v-6L5.485 8l7.5 7.5v-6c4.965 0 9 4.035 9 9s-4.035 9-9 9-9-4.035-9-9h-3c0 6.63 5.37 12 12 12s12-5.37 12-12-5.37-12-12-12zM11.35 23v-6.405h-.135l-2.655.945v1.035l1.515-.465V23h1.275zm3.795-1.275c-.075.105-.165.195-.27.255-.105.06-.255.09-.405.09-.255 0-.465-.075-.63-.225-.165-.15-.255-.36-.285-.615h-1.26c.015.3.075.555.195.795.12.24.285.42.48.585.195.165.435.285.69.36.255.075.525.12.795.12.36 0 .69-.06.96-.18s.495-.27.675-.465c.18-.195.315-.42.405-.675.09-.255.135-.525.135-.81 0-.33-.045-.645-.135-.9-.09-.255-.21-.495-.375-.675-.165-.18-.375-.33-.615-.42-.24-.09-.51-.15-.825-.15-.105 0-.21.015-.3.03s-.195.03-.27.06c-.075.03-.15.045-.225.075-.075.03-.12.06-.165.075l.165-1.38h2.55V16.61H12.85l-.375 3.255 1.005.255c.045-.045.09-.09.15-.135.06-.045.105-.075.18-.105s.15-.06.225-.075c.075-.015.195-.03.3-.03.18 0 .33.03.45.075s.24.135.315.225c.075.09.15.21.195.36.045.15.06.285.06.465 0 .18-.015.33-.045.465s-.09.255-.165.36z"/>
    </defs>
    <g fill="none" fill-rule="evenodd" transform="translate(5 1)">
        <mask id="prefix__b" fill="#fff">
            <use xlink:href="#prefix__a"/>
        </mask>
        <g fill="#000" fill-opacity=".87" mask="url(#prefix__b)">
            <path d="M0 0H36V36H0z" transform="translate(-5 -1)"/>
        </g>
    </g>
</svg>
