<?xml version="1.0" encoding="UTF-8"?>
<svg width="344px" height="60px" viewBox="0 0 344 60" version="1.1" xmlns="http://www.w3.org/2000/svg" xmlns:xlink="http://www.w3.org/1999/xlink">
    <!-- Generator: Sketch 52.6 (67491) - http://www.bohemiancoding.com/sketch -->
    <title>Group 78</title>
    <desc>Created with Sketch.</desc>
    <g id="Symbols" stroke="none" stroke-width="1" fill="none" fill-rule="evenodd" fill-opacity="0.25" opacity="0.542015439">
        <g id="sound/2" fill="#000000">
            <g id="Group-78">
                <path d="M0,33.0554369 L0,26.9445631 L2.26555014,26.9445631 L2.26555014,33.0554369 L0,33.0554369 Z M4.49598425,34.3585364 L4.49598425,25.6414636 L6.76153438,25.6414636 L6.76153438,34.3585364 L4.49598425,34.3585364 Z M8.99196849,50.0319517 L8.99196849,9.9680483 L11.2575186,9.9680483 L11.2575186,50.0319517 L8.99196849,50.0319517 Z M13.4890855,44.5324302 L13.4890855,15.4666863 L15.7546357,15.4666863 L15.7546357,44.5324302 L13.4890855,44.5324302 Z M17.9850698,38.5664433 L17.9850698,21.4326732 L20.2506199,21.4326732 L20.2506199,38.5664433 L17.9850698,38.5664433 Z M22.4821868,40.4702937 L22.4821868,19.5297063 L24.7477369,19.5297063 L24.7477369,40.4702937 L22.4821868,40.4702937 Z M26.978171,37.6653169 L26.978171,22.3346831 L29.2437212,22.3346831 L29.2437212,37.6653169 L26.978171,37.6653169 Z M31.4752881,42.5738055 L31.4752881,17.4244276 L33.7408382,17.4244276 L33.7408382,42.5738055 L31.4752881,42.5738055 Z M35.9712723,44.3778252 L35.9712723,15.6212913 L38.2368224,15.6212913 L38.2368224,44.3778252 L35.9712723,44.3778252 Z M40.4683893,45.6800412 L40.4683893,14.3190753 L42.7339395,14.3190753 L42.7339395,45.6800412 L40.4683893,45.6800412 Z M44.9643736,41.0710447 L44.9643736,18.9280719 L47.2299237,18.9280719 L47.2299237,41.0710447 L44.9643736,41.0710447 Z M49.4614906,55.0985791 L49.4614906,4.90053744 L51.7270407,4.90053744 L51.7270407,55.0985791 L49.4614906,55.0985791 Z M53.9574748,49.3799602 L53.9574748,10.6182728 L56.223025,10.6182728 L56.223025,49.3799602 L53.9574748,49.3799602 Z M58.4545919,50.6592064 L58.4545919,9.34079364 L60.720142,9.34079364 L60.720142,50.6592064 L58.4545919,50.6592064 Z M62.9505761,53.5348598 L62.9505761,6.46602371 L65.2161262,6.46602371 L65.2161262,53.5348598 L62.9505761,53.5348598 Z M67.4465603,46.3452845 L67.4465603,13.6547155 L69.7121105,13.6547155 L69.7121105,46.3452845 L67.4465603,46.3452845 Z M71.9436774,36.7588898 L71.9436774,23.2402268 L74.2092275,23.2402268 L74.2092275,36.7588898 L71.9436774,36.7588898 Z M76.4396616,35.5936097 L76.4396616,24.4063903 L78.7052118,24.4063903 L78.7052118,35.5936097 L76.4396616,35.5936097 Z M80.9367786,42.3723772 L80.9367786,17.6276228 L83.2023288,17.6276228 L83.2023288,42.3723772 L80.9367786,42.3723772 Z M85.4326496,25.3518663 L85.4326496,19.2975337 L87.6981997,19.2975337 L87.6981997,25.3518663 L87.6981997,34.6476036 L87.6981997,40.7010528 L85.4326496,40.7010528 L85.4326496,34.6476036 L85.4326496,25.3518663 Z M89.9298799,45.2630494 L89.9298799,14.7360671 L92.19543,14.7360671 L92.19543,45.2630494 L89.9298799,45.2630494 Z M94.4258642,56.8416403 L94.4258642,3.15747626 L96.6914143,3.15747626 L96.6914143,56.8416403 L94.4258642,56.8416403 Z M98.9229812,49.4736067 L98.9229812,10.5263933 L101.188531,10.5263933 L101.188531,49.4736067 L98.9229812,49.4736067 Z M103.418965,60 L103.418965,-5.32907052e-14 L105.684516,-5.32907052e-14 L105.684516,60 L103.418965,60 Z M107.916082,50.0319517 L107.916082,9.9680483 L110.181633,9.9680483 L110.181633,50.0319517 L107.916082,50.0319517 Z M112.412067,37.6653169 L112.412067,22.3346831 L114.677617,22.3346831 L114.677617,37.6653169 L112.412067,37.6653169 Z M116.909184,42.5738055 L116.909184,17.4244276 L119.174734,17.4244276 L119.174734,42.5738055 L116.909184,42.5738055 Z M121.405168,44.3778252 L121.405168,15.6212913 L123.670718,15.6212913 L123.670718,44.3778252 L121.405168,44.3778252 Z M125.902285,45.6800412 L125.902285,14.3190753 L128.167835,14.3190753 L128.167835,45.6800412 L125.902285,45.6800412 Z M130.398269,38.1326658 L130.398269,21.8673342 L132.663819,21.8673342 L132.663819,38.1326658 L130.398269,38.1326658 Z M134.894253,48.4364279 L134.894253,11.5635721 L137.159804,11.5635721 L137.159804,48.4364279 L134.894253,48.4364279 Z M139.39137,44.2355886 L139.39137,15.7626445 L141.656921,15.7626445 L141.656921,44.2355886 L139.39137,44.2355886 Z M143.887355,45.1747037 L143.887355,14.8244129 L146.152905,14.8244129 L146.152905,45.1747037 L143.887355,45.1747037 Z M148.384472,53.5348598 L148.384472,6.46602371 L150.650022,6.46602371 L150.650022,53.5348598 L148.384472,53.5348598 Z M152.880456,46.3452845 L152.880456,13.6547155 L155.146006,13.6547155 L155.146006,46.3452845 L152.880456,46.3452845 Z M157.377573,36.7588898 L157.377573,23.2402268 L159.643123,23.2402268 L159.643123,36.7588898 L157.377573,36.7588898 Z M161.873557,33.0554369 L161.873557,26.9436796 L164.139107,26.9436796 L164.139107,33.0554369 L161.873557,33.0554369 Z M166.370674,36.7588898 L166.370674,23.2402268 L168.636224,23.2402268 L168.636224,36.7588898 L166.370674,36.7588898 Z M170.866545,25.3518663 L170.866545,19.2975337 L173.132095,19.2975337 L173.132095,25.3518663 L173.132095,34.6476036 L173.132095,40.7010528 L170.866545,40.7010528 L170.866545,34.6476036 L170.866545,25.3518663 Z M175.363776,45.2630494 L175.363776,14.7360671 L177.629326,14.7360671 L177.629326,45.2630494 L175.363776,45.2630494 Z M179.85976,56.8416403 L179.85976,3.15747626 L182.12531,3.15747626 L182.12531,56.8416403 L179.85976,56.8416403 Z M184.355744,49.4736067 L184.355744,10.5263933 L186.621294,10.5263933 L186.621294,49.4736067 L184.355744,49.4736067 Z M188.852861,38.5664433 L188.852861,21.4326732 L191.118411,21.4326732 L191.118411,38.5664433 L188.852861,38.5664433 Z M193.349978,40.4702937 L193.349978,19.5297063 L195.615528,19.5297063 L195.615528,40.4702937 L193.349978,40.4702937 Z M233.818367,37.6653169 L233.818367,22.3346831 L236.083918,22.3346831 L236.083918,37.6653169 L233.818367,37.6653169 Z M229.32125,42.5738055 L229.32125,17.4244276 L231.586801,17.4244276 L231.586801,42.5738055 L229.32125,42.5738055 Z M224.825266,44.3778252 L224.825266,15.6212913 L227.090816,15.6212913 L227.090816,44.3778252 L224.825266,44.3778252 Z M220.328149,45.6800412 L220.328149,14.3190753 L222.593699,14.3190753 L222.593699,45.6800412 L220.328149,45.6800412 Z M215.832165,41.0710447 L215.832165,18.9280719 L218.097715,18.9280719 L218.097715,41.0710447 L215.832165,41.0710447 Z M211.335048,55.0985791 L211.335048,4.90053744 L213.600598,4.90053744 L213.600598,55.0985791 L211.335048,55.0985791 Z M206.839064,49.3799602 L206.839064,10.6182728 L209.104614,10.6182728 L209.104614,49.3799602 L206.839064,49.3799602 Z M202.341947,50.6592064 L202.341947,9.34079364 L204.607497,9.34079364 L204.607497,50.6592064 L202.341947,50.6592064 Z M197.845962,53.5348598 L197.845962,6.46602371 L200.111512,6.46602371 L200.111512,53.5348598 L197.845962,53.5348598 Z M238.314352,46.3452845 L238.314352,13.6547155 L240.579902,13.6547155 L240.579902,46.3452845 L238.314352,46.3452845 Z M242.811469,36.7588898 L242.811469,23.2402268 L245.077019,23.2402268 L245.077019,36.7588898 L242.811469,36.7588898 Z M247.307453,33.0554369 L247.307453,26.9436796 L249.573003,26.9436796 L249.573003,33.0554369 L247.307453,33.0554369 Z M251.803437,36.7588898 L251.803437,23.2402268 L254.068987,23.2402268 L254.068987,36.7588898 L251.803437,36.7588898 Z M256.300328,28.6726055 L256.300328,26.9436796 L258.565878,26.9436796 L258.565878,28.6726055 L258.565878,31.3273945 L258.565878,33.0554369 L256.300328,33.0554369 L256.300328,31.3273945 L256.300328,28.6726055 Z M260.797671,34.3585364 L260.797671,25.6414636 L263.063221,25.6414636 L263.063221,34.3585364 L260.797671,34.3585364 Z M265.293655,37.6653169 L265.293655,22.3346831 L267.559206,22.3346831 L267.559206,37.6653169 L265.293655,37.6653169 Z M269.78964,35.5609217 L269.78964,24.4390783 L272.05519,24.4390783 L272.05519,35.5609217 L269.78964,35.5609217 Z M274.286757,38.5664433 L274.286757,21.4326732 L276.552307,21.4326732 L276.552307,38.5664433 L274.286757,38.5664433 Z M278.782741,40.4702937 L278.782741,19.5297063 L281.048291,19.5297063 L281.048291,40.4702937 L278.782741,40.4702937 Z M283.279858,37.6653169 L283.279858,22.3346831 L285.545408,22.3346831 L285.545408,37.6653169 L283.279858,37.6653169 Z M287.775842,42.5738055 L287.775842,17.4244276 L290.041392,17.4244276 L290.041392,42.5738055 L287.775842,42.5738055 Z M292.272959,44.3778252 L292.272959,15.6212913 L294.538509,15.6212913 L294.538509,44.3778252 L292.272959,44.3778252 Z M296.768944,45.6800412 L296.768944,14.3190753 L299.034494,14.3190753 L299.034494,45.6800412 L296.768944,45.6800412 Z M301.266061,41.0710447 L301.266061,18.9280719 L303.531611,18.9280719 L303.531611,41.0710447 L301.266061,41.0710447 Z M305.762045,55.0985791 L305.762045,4.90053744 L308.027595,4.90053744 L308.027595,55.0985791 L305.762045,55.0985791 Z M310.259162,49.3799602 L310.259162,10.6182728 L312.524712,10.6182728 L312.524712,49.3799602 L310.259162,49.3799602 Z M314.755146,50.6592064 L314.755146,9.34079364 L317.020696,9.34079364 L317.020696,50.6592064 L314.755146,50.6592064 Z M319.25113,53.5348598 L319.25113,6.46602371 L321.51668,6.46602371 L321.51668,53.5348598 L319.25113,53.5348598 Z M323.748247,46.3452845 L323.748247,13.6547155 L326.013797,13.6547155 L326.013797,46.3452845 L323.748247,46.3452845 Z M328.245364,36.7588898 L328.245364,23.2402268 L330.510914,23.2402268 L330.510914,36.7588898 L328.245364,36.7588898 Z M332.741349,33.0554369 L332.741349,26.9436796 L335.006899,26.9436796 L335.006899,33.0554369 L332.741349,33.0554369 Z M337.237333,36.7588898 L337.237333,23.2402268 L339.502883,23.2402268 L339.502883,36.7588898 L337.237333,36.7588898 Z M341.73445,31.3273945 L341.73445,28.6726055 L344,28.6726055 L344,31.3273945 L341.73445,31.3273945 Z" id="Combined-Shape"></path>
            </g>
        </g>
    </g>
</svg>